<?xml version="1.0" encoding="UTF-8"?>
<svg version="1.1" viewBox="0 0 2048 2034" width="152" height="151" xmlns="http://www.w3.org/2000/svg">
<path transform="translate(711,374)" d="m0 0h26l16 1 2 5-1 136 171 1h405v-141l3-2h66l73 1 1 2v140h63l24 1 20 3 16 5 19 9 14 10 14 12 8 8 11 14 11 18 8 18 4 16 2 13 1 25v927l-1 68-2 24-3 18-6 15-11 20-9 13-9 10-9 9-16 11-16 8-14 6-15 4-24 3-16 1-982 1-28-1-21-3-14-4-23-11-12-8-10-8-10-9-10-11-7-10-6-10-7-16-5-15-3-12-2-23-1-768v-206l1-47 2-14 5-17 5-12 9-15 11-14 11-13 12-11 17-12 17-9 24-8 15-3h62l24 1v-138l2-4 13-1zm-171 284-1 1-1 74v73h982l22-1 1-1 2-145-25-1zm-1 289-1 44v674l1 1h1e3l3-1 1-5v-713z" fill="#1E1D20"/>
<path transform="translate(1031,1091)" d="m0 0h20l16 3 14 7 13 11 10 13 7 14 3 11 1 7v13l-2 12-6 14-9 13-12 12-16 8-14 5-6 1h-13l-16-3-13-5-10-7-11-11-8-13-6-15-2-10v-17l4-16 8-16 7-9 9-9 14-8 12-4z" fill="#1E1D20"/>
<path transform="translate(1036,1377)" d="m0 0h12l17 3 11 4 12 7 9 9 9 14 6 13 3 13v16l-2 11-8 16-6 9-10 11-11 8-12 6-14 3h-16l-13-2-14-5-13-9-9-9-7-11-7-16-3-15 1-16 5-16 6-11 8-10 7-7 10-7 13-6z" fill="#1E1D20"/>
<path transform="translate(745,1091)" d="m0 0h18l16 3 12 5 11 7 11 11 8 13 5 15 3 16-1 12-5 15-8 15-9 11-11 8-16 8-12 4-6 1h-11l-15-3-13-5-10-7-6-5-8-10-8-16-4-12-1-6v-18l3-14 5-11 6-10 3-4h2l2-4 12-9 14-7z" fill="#1E1D20"/>
<path transform="translate(1321,1091)" d="m0 0h16l14 2 11 4 9 5 10 9 8 10 8 16 3 12 1 19-2 14-8 16-10 13-9 9-11 7-13 5-14 3-19-2-12-4-14-7-13-12-8-10-7-15-4-17v-15l5-18 7-12 11-12 8-7 14-8 12-4z" fill="#1E1D20"/>
<path transform="translate(747,1377)" d="m0 0h16l16 4 16 8 9 7 9 9 8 14 5 12 2 9v14l-4 17-8 17-12 15-10 7-10 5-9 3-6 1h-30l-12-3-8-4-11-9-9-10-9-15-4-12-2-11v-14l4-17 7-14 8-10 9-8 14-8 12-5z" fill="#1E1D20"/>
<path transform="translate(1326,1377)" d="m0 0 14 1 15 4 12 6 9 7 9 9 9 14 5 13 2 12v15l-4 16-8 14-8 10-6 7-14 9-12 4-6 1h-28l-11-3-10-4-11-8-8-8-7-10-7-15-4-15v-16l3-12 7-16 9-11 7-7 14-9 15-6z" fill="#1E1D20"/>
</svg>
