<?xml version="1.0" encoding="UTF-8"?>
<svg version="1.1" viewBox="0 0 1776 1792" width="111" height="112" xmlns="http://www.w3.org/2000/svg">
<path transform="translate(823,471)" d="m0 0h152l8 1 2 3v366l4 8 6 7 8 7 5 4v2l4 2 202 202 8 7 39 39 5 6 11 9 6 7 1 3-11 12-21 21-7 8h-2v2l-36 36-8 7-9 10-10 13-3 6-4-2-2-4-5-2-11-9-39-39v-2l-4-2-12-12v-2l-4-2-215-215-3-2v-2l-4-2v-2l-4-2-40-40-8-10-1-2v-221l1-213z" fill="#1D1C1E"/>
<path transform="translate(1425,1271)" d="m0 0 6 2 18 12 16 9 12 7 16 8 21 12 43 24 8 4 1 4-8 8-14 19-9 10-9 11-10 12-8 10-13 15-8 8-7 8-32 30-14 11-9 8-17 13-11 9-7 7-6 4-4-1-5-5-6-7-12-21-9-15-8-16-14-24-12-21-15-26-1-5 14-12h2v-2l8-7 15-14 8-7 35-35 7-8 9-9 7-8 7-7 7-9z" fill="#1D1C1E"/>
<path transform="translate(425,212)" d="m0 0 5 4 8 14 13 23 9 15 15 26 10 19 15 25 9 16 1 3-4 4-11 8-4 4h-2v2l-8 7-16 15-53 53-7 8-9 10-7 9-4 4-5-1-21-11-14-8-24-14-46-25-30-18-4-3 2-5 11-13 11-14 5-6h2l2-4 14-15 12-13 15-16 9-9 2-3h2l1-3 8-7 22-22 8-7 9-9 11-9 10-9 10-8 16-16z" fill="#1D1C1E"/>
<path transform="translate(377,1269)" d="m0 0 5 1 9 9 9 11 11 12 9 11 16 17 18 18 11 9 15 13 11 10 11 9 7 7 1 3-9 13-7 11-18 34-9 16-6 10-13 22-8 16-5 9-6 7-7-3-6-5-20-16-14-12-13-12-11-9-13-12-8-7-13-13-7-8-9-10-7-8-9-10-7-8-12-14-11-14-14-17-7-10 5-5 19-9 17-10 23-13 58-34z" fill="#1D1C1E"/>
<path transform="translate(1379,216)" d="m0 0 5 1 18 14 17 14 14 12 13 11 9 7 13 12 10 9 11 11 7 8 12 13 9 11 12 14 11 13 13 17 9 13v4l-16 10-14 8-22 13-23 14-22 13-15 8-18 12-2 1h-6l-9-7-13-15-18-18-7-8-32-32-8-7-21-21-11-9-3-3v-2l-4-2 2-4 8-13 14-26 21-35 11-22 18-33z" fill="#1D1C1E"/>
<path transform="translate(1642,543)" d="m0 0h5l4 6 10 29 9 24 10 31 9 31 10 42 7 37 6 40v9l-5 2-53 1h-103l-2-2-11-57-9-38-13-44-6-16-4-8 1-7 34-21 24-13 20-12 29-17 15-9 11-7z" fill="#1D1C1E"/>
<path transform="translate(161,544)" d="m0 0 9 3 11 8 20 12 22 12 18 10 26 14 20 12 13 9 1 6-8 17-7 23-11 39-9 37-6 30-3 16-2 2-71 1h-86l-4-1v-10l5-35 7-37 10-44 7-25 13-41 10-28 11-26z" fill="#1D1C1E"/>
<path transform="translate(1551,958)" d="m0 0 160 1 1 1-1 16-5 37-5 27-11 49-7 26-13 40-19 46-4 8-6-2-10-6-22-12-17-11-44-24-20-12-19-11-5-5 2-6 8-17 6-18 13-44 9-41 6-37 1-4z" fill="#1D1C1E"/>
<path transform="translate(988,66)" d="m0 0 17 2 56 9 42 9 30 8 35 11 20 7 23 10 21 7 5 5-10 15-12 22-10 19-7 11-10 18-16 30-8 13-6 8-5 1-19-5-36-11-50-13-40-9-16-4-5-3-1-5v-150z" fill="#1D1C1E"/>
<path transform="translate(814,67)" d="m0 0h6l1 7v152l-3 3-38 8-31 7-50 13-36 12-10 3h-5l-12-23-12-21-15-27-14-26-13-23-7-12-2-7 6-5 34-14 25-9 37-12 29-7 44-9 35-6z" fill="#1E1D1F"/>
<path transform="translate(1155,1478)" d="m0 0 4 1 14 28 10 19 13 22 16 28 11 19 9 17 2 6-1 5-27 9-26 11-42 13-56 14-31 6-40 7-16 3h-7l-1-1-1-17v-142l1-2 22-5 54-12 53-15 26-9z" fill="#1D1C1E"/>
<path transform="translate(648,1480)" d="m0 0 9 1 36 12 32 9 32 8 38 8 22 5 3 2 1 3v82l-1 76-1 1h-8l-30-7-27-4-28-5-33-8-37-10-35-12-30-12-10-6-6-4 1-8 8-15 10-18 11-18 12-22 11-20 7-11 12-26z" fill="#1D1C1E"/>
<path transform="translate(95,959)" d="m0 0h162l2 4 6 37 8 37 10 35 8 25 11 28-4 4-16 8-27 16-32 17-24 14-28 17-7 4-4-2-6-7-7-16-13-35-6-18-12-43-9-39-8-44-4-35z" fill="#1D1C1E"/>
<path transform="translate(823,471)" d="m0 0h152l8 1 2 3v107l-1 154h-1l-2-66-1-46-2-149h-116l-30 1-2 65-2 154-2 92-1 123-4-4v-221l1-213z" fill="#080808"/>
<path transform="translate(307,1426)" d="m0 0 6 4v2l4 2 12 12 8 7 7 6v2l4 2 16 15 10 9 27 27-3 1-11-10-8-7-10-9-11-9-13-12-8-7-13-13-7-8-9-10z" fill="#090909"/>
<path transform="translate(1214,1584)" d="m0 0 3 1 9 15 7 15 1 7-10 4-18 6-26 11-19 6h-3l1-3 26-10 20-9 16-9 3-3-1-10-9-20z" fill="#0B0B0B"/>
<path transform="translate(1088,1500)" d="m0 0h5l-1 2-25 8-28 8-30 8-20 6h-3v-6l1-2 22-5 54-12z" fill="#0A0A0A"/>
<path transform="translate(1707,960)" d="m0 0h5l-1 16-5 37-5 27-8 36-2-2 1-9 8-45 5-39z" fill="#0A0A0A"/>
<path transform="translate(281,678)" d="m0 0h1l-1 10-9 32-10 45-2 1 1-17 4-25 4-14 6-17z" fill="#0B0B0B"/>
<path transform="translate(746,1509)" d="m0 0h7l42 9 22 5 3 2-1 4-36-9-37-10z" fill="#09090A"/>
<path transform="translate(118,1087)" d="m0 0h2l7 25 10 31 10 29 2 5v3h-2l-13-35-6-18-10-36z" fill="#0A0A0A"/>
<path transform="translate(1e3 863)" d="m0 0 4 2 3 2v2l4 2 88 88-1 2-64-64-8-7-26-26z" fill="#0F0E0F"/>
<path transform="translate(1503,1425)" d="m0 0 1 3-14 15-12 13-13 12-17 16-7 5v-3l17-16 8-7 29-29 7-8z" fill="#111"/>
<path transform="translate(95,959)" d="m0 0 3 1 6 49v10h-2l-4-25-3-28z" fill="#121213"/>
<path transform="translate(94,790)" d="m0 0 54 2 13 1v1h-67z" fill="#020202"/>
<path transform="translate(588,1592)" d="m0 0 1 2-11 22-1 3h-2l1-8 8-15z" fill="#060606"/>
<path transform="translate(396,464)" d="m0 0h2l-2 4-7 9-4 4-5-1 2-4 11-9z" fill="#0D0D0D"/>
<path transform="translate(257,1339)" d="m0 0 4 1-16 12-3-1-1-3 5-4z" fill="#0D0D0E"/>
<path transform="translate(1708,773)" d="m0 0h2l2 10v9l-4 1z" fill="#0D0D0D"/>
<path transform="translate(1690,1078)" d="m0 0h1v7l-4 16-3 2 1-8 4-16z" fill="#080808"/>
<path transform="translate(1365,1513)" d="m0 0 5 5 10 14v2h-2l-9-11-4-7z" fill="#171717"/>
<path transform="translate(1458,1470)" d="m0 0m-1 1m-1 1m-1 1m-1 1 2 2-9 9-7 4 2-4z" fill="#0E0E0E"/>
<path transform="translate(118,1087)" d="m0 0h2l5 17-1 6-2-4-4-15z" fill="#0E0D0E"/>
<path transform="translate(268,1026)" d="m0 0h2l5 18v6l-2-2-5-19z" fill="#080708"/>
<path transform="translate(1695,1055)" d="m0 0h1v8l-3 13-2-2 1-9 2-9z" fill="#111"/>
<path transform="translate(1426,1498)" d="m0 0 1 3-12 10-3-1z" fill="#101010"/>
<path transform="translate(1485,1445)" d="m0 0 1 3-11 11-1-3z" fill="#1E1E1E"/>
<path transform="translate(143,1166)" d="m0 0h2l4 11v3h-2l-4-10z" fill="#080808"/>
<path transform="translate(1153,1648)" d="m0 0h2v3l-7 2h-6l1-2z" fill="#080808"/>
<path transform="translate(151,1186)" d="m0 0h2l4 8 1 5h-2l-5-10z" fill="#101010"/>
<path transform="translate(256,960)" d="m0 0h2l2 9v4h-2l-2-8z" fill="#090909"/>
<path transform="translate(1088,1500)" d="m0 0h5l-1 2-9 3-3-1 1-2z" fill="#070708"/>
<path transform="translate(263 1e3)" d="m0 0h2l2 7v8l-2-3z" fill="#060607"/>
</svg>
