<?xml version="1.0" encoding="UTF-8"?>
<svg version="1.1" viewBox="0 0 1840 1792" width="115" height="112" xmlns="http://www.w3.org/2000/svg">
<path transform="translate(476,600)" d="m0 0h13l27 1 33 3 26 4 28 7 35 12 30 13 29 13 28 13 23 11 20 9 28 13 23 7 29 6 22 3 12 1h25l10-2 29-3 23-5 19-6 16-7 18-8 42-18 25-13 16-8 24-11 35-13 32-10 25-5 36-5 31-2h33l32 2 36 4 24 5 27 8 35 13 26 11 39 18 29 14 35 17 24 9 30 8 35 7 16 3 6 3 1 2v134l-1 15-2 3h-14l-28-3-12-1h-8l-17-3-25-6-35-11-34-14-66-30-32-15-18-8-24-10-21-7-27-5-20-2-19-1h-26l-31 3-24 5-20 6-26 11-76 38-34 14-48 19-20 6-34 8-19 3-25 2-23 1h-44l-29-2-29-5-27-6-30-10-29-12-20-9-26-12-26-13-28-13-19-9-14-7-19-7-15-4-22-4-33-3h-36l-24 2-25 5-17 5-32 13-35 17-29 14-34 15-28 12-40 14-23 6-27 6-26 4-33 3h-14l-1-2-1-37v-116l3-3 36-5 23-4 33-10 29-13 36-16 24-12 20-9 16-8 26-11 29-10 18-6 21-5 38-6 24-2z" fill="#1E1D20"/>
<path transform="translate(470,1333)" d="m0 0h34l33 2 29 4 24 5 24 7 38 14 25 11 16 8 29 14 31 15 39 17 20 7 19 5 24 4 18 2h47l32-5 28-7 31-12 20-9 23-11 19-10 32-16 28-12 35-13 22-7 21-5 30-5 22-2 29-1h29l39 2 35 5 28 6 33 11 29 12 28 13 25 11 27 13 33 15 18 8 13 6 21 6 27 5 34 4 4 2 1 4v147l-3 5h-22l-34-3-35-6-28-7-28-10-32-13-56-26-23-11-17-8-16-8-29-11-18-5-20-4-26-3-18-1h-21l-29 3-24 5-21 6-29 12-26 12-66 32-29 12-24 9-30 10-26 6-29 5-28 3-17 1h-40l-23-1-18-2-31-5-22-5-30-10-28-11-40-17-29-14-56-28-19-8-16-5-13-3-32-5-18-2h-31l-29 3-27 6-17 5-35 14-22 10-56 28-24 10-28 11-37 12-24 6-33 6-35 4-13 1h-12l-1-4-1-38v-115l3-2 26-2 23-3 22-5 18-6 18-8 39-17 29-14 32-16 28-12 28-11 17-6 23-6 33-6 17-2z" fill="#1E1D20"/>
<path transform="translate(469,965)" d="m0 0h25l31 2 40 5 29 6 19 6 30 11 34 14 20 9 31 15 16 8 17 9 35 15 16 6 22 5 36 6h50l27-4 19-5 26-8 15-6 25-12 25-13 28-13 31-14 34-14 31-11 24-6 34-6 32-3 19-1h31l31 2 32 4 31 6 22 6 20 7 19 8 28 12 41 20 29 14 26 11 28 11 22 7 22 5 24 4 16 3 3 4 1 3v90l-1 56-3 3h-13l-44-4-29-5-22-5-26-8-20-8-42-18-29-14-26-13-41-18-29-11-18-5-33-5-10-1h-52l-25 3-25 5-20 7-27 11-21 9-68 34-31 13-30 12-16 5-55 11-22 3-20 1h-60l-38-4-37-8-36-12-35-13-23-10-17-8-58-29-23-10-30-11-29-6-24-3-24-1h-17l-18 1-24 4-24 6-29 11-35 15-20 9-25 12-24 12-25 11-29 11-21 7-25 6-39 7-35 4-18 1-2-2-1-4-1-41v-109l2-3 21-2 29-4 21-5 25-9 21-9 21-10 32-16 17-8 14-7 25-10 26-11 36-12 25-6 36-6 32-3z" fill="#1E1D20"/>
<path transform="translate(457,234)" d="m0 0h44l33 2 27 3 34 7 20 6 24 9 33 14 33 16 39 19 33 14 21 8 30 10 21 5 22 3 13 1h20l26-4 4-1 13-1 30-8 34-13 26-12 25-12 17-9 24-11 45-19 24-9 24-7 26-5 29-4 10-1 26-1h35l25 1 38 4 31 6 27 8 29 11 21 9 28 13 16 8 40 19 17 7 28 12 18 6 26 7 20 4 24 4 6 3v151l-5 3h-13l-11-2-33-2-25-5-32-8-26-9-36-14-29-12-52-25-16-8-26-12-36-12-24-5-29-2h-42l-21 2-25 5-33 11-24 10-26 12-52 26-25 12-41 15-23 7-34 8-27 4-35 3h-55l-31-3-28-5-28-7-33-11-26-11-33-15-60-30-26-12-21-8-19-6-20-4-16-2-25-1h-35l-26 3-24 5-27 9-29 12-25 11-16 8-37 18-34 15-38 14-31 8-29 6-28 4-31 3h-9l-2-1-1-29v-125l24-2 26-6 24-7 25-9 27-11 28-13 56-28 26-11 31-12 27-9 27-6 36-5z" fill="#1E1D20"/>
</svg>
