<?xml version="1.0" encoding="UTF-8"?>
<svg version="1.1" viewBox="0 0 1964 2048" width="164" height="171" xmlns="http://www.w3.org/2000/svg">
<path transform="translate(630,676)" d="m0 0h25l12 4 12 7 10 9 8 11 10 17 11 20 10 16 16 26 13 20 17 25 12 17 14 19 13 17 13 16 9 11 12 14 13 15 9 10 9 11 8 8 7 8 21 21 2 1v2l4 2 5 5 9 8 6 3h9l6-2h9l5 3 1 5-8 5-14 2 9 9 9 6 14 12 12 11 16 12 13 11 21 16 18 13 16 12 19 13 13 8 17 10 24 15 24 14 18 10 14 8 13 10 7 7 7 11 5 12 3 11v15l-4 12-7 13-11 12-10 8-15 10-22 12-32 16-21 10-28 10-28 8-26 6-34 5-18 2-16 1h-43l-39-4-34-6-24-6-36-12-21-9-19-9-19-10-18-10-10-7-14-10-14-11-13-11-7-7-8-7-22-22-7-8-7-7-9-11-16-21-13-19-12-21-16-32-11-26-12-37-8-30-6-43-2-33v-25l3-37 4-28 7-34 9-30 11-30 11-26 11-21 17-28 8-11 8-10 11-9 13-6zm18 197-3 8-5 25-3 21-2 33v10l3 34 4 24 6 25 11 31 12 25 14 23 9 12 10 13 11 13 9 10 9 9 14 11 17 14 14 10 21 12 23 12 13 6 31 11 27 6 25 4 26 2h29l26-3 41-7 2-2-9-8-24-16-14-10-18-13-16-12-18-14-28-22-10-9-8-7-28-24-7-7-8-7-59-59-7-8-15-16-12-14-11-12-9-11-12-14-30-39-14-19-13-18-21-31z" fill="#1E1D20"/>
<path transform="translate(931,516)" d="m0 0h63l32 3 35 6 31 8 29 10 23 10 20 10 25 15 18 12 18 13 15 13 14 12 12 11 14 14 9 11 13 15 12 15 14 20 13 22 14 27 10 22 9 24 10 37 5 27 4 29 2 28v57l-2 26-6 40-5 25-10 32-10 21-8 10-8 7-19 7-8 2-10 1h-10l-16-4-12-6-12-11-11-18-4-11-1-6v-10l3-15 10-32 6-27 3-21 2-27v-31l-1-20-4-27-6-26-7-21-10-24-12-22-12-19-14-18-11-14-9-10-6-7-8-7-13-11-19-14-13-9-17-10-25-13-25-10-21-6-23-5-18-2h-64l-21 2-26 5-28 8-24 8-10 2h-19l-15-5-8-6-10-10-8-14-5-12-2-7-1-14 3-16 8-16 7-9 12-9 16-8 15-6 24-7 33-7 26-4z" fill="#1E1D20"/>
<path transform="translate(1604,894)" d="m0 0h45l16 2 14 4 12 7 10 9 7 10 5 12 3 11 1 13-3 16-7 14-9 11-7 7-14 9-11 5-8 2-10 1-30 1h-28l-12-2-16-8-11-7-7-6v-2h-2l-9-12-6-15-2-10v-17l4-14 7-13 11-12 13-8 10-4 17-3z" fill="#1E1D20"/>
<path transform="translate(1438,399)" d="m0 0h16l16 4 12 6 11 9 7 8 8 15 4 14v15l-3 12-7 14-9 12-14 15-23 23-16 14-17 9-10 3-11 1-15-2-12-4-12-7-10-10-9-15-5-15-2-10 1-13 5-15 9-14 12-14 32-32 10-8 11-7 16-7z" fill="#1E1D20"/>
<path transform="translate(944,196)" d="m0 0h17l17 4 12 6 12 11 7 10 6 14 2 11 1 18v21l-1 36-3 16-7 14-8 11-11 9-14 6-11 3h-21l-15-4-11-6-9-8-9-13-5-12-3-13-1-9v-62l3-17 7-16 9-12 8-7 10-6 12-4z" fill="#1E1D20"/>
<path transform="translate(273,894)" d="m0 0h38l20 2 13 4 11 6 12 11 7 10 6 13 2 9v21l-3 10-6 11-8 11-9 9-12 6-15 4-9 1h-70l-18-3-12-6-10-8-8-9-7-14-3-9-1-6v-13l3-15 5-12 8-11 7-7 11-7 13-5 12-2z" fill="#1E1D20"/>
<path transform="translate(454,400)" d="m0 0h13l15 4 17 9 9 7 10 9 13 12 10 10 9 11 9 12 8 16 3 14-1 13-4 13-8 15-11 12-10 7-16 7-13 2h-8l-14-3-14-7-11-9-16-15-18-18-14-16-9-14-6-14-1-3v-14l5-16 9-16 11-12 14-9 12-5z" fill="#1E1D20"/>
<path transform="translate(496,1345)" d="m0 0h11l17 3 12 5 12 9 8 9 7 14 4 17v18l-4 12-6 12-9 12-12 13-17 17-8 7-9 8-11 7-15 6-7 2h-15l-14-3-13-7-11-9-7-7-8-14-4-11-1-5v-16l3-11 8-16 6-8 11-13 30-30 13-10 16-8 6-2z" fill="#1E1D20"/>
<path transform="translate(1397,1344)" d="m0 0h12l14 3 14 7 14 11 19 19 8 7 9 9 9 11 7 10 5 10 2 8v20l-4 15-8 14-11 12-9 7-16 6-13 3-14-1-12-3-13-7-20-18-24-24-7-8-10-14-7-15-3-14v-9l4-16 7-13 9-11 10-9 17-8z" fill="#1E1D20"/>
<path transform="translate(941,1532)" d="m0 0h22l16 4 12 6 13 13 8 14 4 14 2 20v39l-1 20-3 16-7 14-8 10-8 5-14 2h-59l-7-3-5-5-8-11-5-12-3-14-1-9v-56l2-18 5-14 7-11 8-9 11-8 10-5z" fill="#1E1D20"/>
<path transform="translate(1593,1021)" d="m0 0 6 1 1 5 2-4h13l10-2h46l-2 2-11 3-10 1-30 1h-28l-5-2-1-4z" fill="#FEFEFE"/>
<path transform="translate(955,1017)" d="m0 0h9l5 3 1 5-8 5h-13l-8-4-4-5 3-2h9z" fill="#FBFBFB"/>
<path transform="translate(1569,1021)" d="m0 0h10l5 5-2 1-11-4z" fill="#FEFEFE"/>
</svg>
