<?xml version="1.0" encoding="UTF-8"?>
<svg version="1.1" viewBox="0 0 1920 1936" width="120" height="121" xmlns="http://www.w3.org/2000/svg">
<path transform="translate(921,558)" d="m0 0h58l23 2 35 5 26 6 26 8 26 11 15 8 16 8 18 10 21 14 16 12 15 13 8 8 8 7 28 28 7 8 12 15 12 17 17 26 11 19 9 20 11 28 6 19 7 28 5 29 4 38 1 18v14l-3 36-5 39-6 25-11 36-8 20-8 18-8 15-12 19-12 18-10 14-13 16-9 11-9 9-7 8-13 12-14 12-11 9-13 10-20 13-20 12-23 12-20 9-25 9-26 8-22 5-33 5-29 3-15 1h-14l-32-2-35-4-26-5-32-9-28-11-28-13-21-11-14-9-14-10-13-10-10-8-15-14-36-36-7-8-10-12-11-15-16-24-14-25-11-22-10-24-8-27-7-30-6-40-2-21v-43l4-36 6-35 7-26 10-30 10-23 11-22 13-22 9-13 15-22 10-13 9-10 8-10 19-19 8-7 9-8 11-9 19-14 19-12 15-9 18-10 28-13 30-11 26-7 28-5 26-3zm10 163-20 2-23 5-27 8-20 9-17 9-19 12-12 9-10 9-6 5v2l-4 2-9 10-11 14-9 12-10 16-12 24-7 19-5 18-5 24-2 16-1 30 2 26 5 28 8 28 7 16 9 17 14 21 9 12 9 10 28 28 18 13 13 8 18 10 25 10 20 6 25 5 21 2h27l22-2 24-4 19-5 21-8 23-11 18-11 16-11 10-8 16-15 7-8 9-11 8-11 11-18 8-14 10-22 7-25 5-24 3-28v-22l-3-32-5-22-10-30-13-27-10-16-10-14-13-15-20-20-20-16-17-11-23-12-25-10-21-6-24-4-25-2z" fill="#232024"/>
<path transform="translate(936,64)" d="m0 0h21l15 2 10 3 12 6 13 11 9 10 8 14 6 15 2 15v56l-1 127-3 14-9 17-12 16-8 8-17 8-22 6-4 1-18-1-16-4-12-5-11-7-15-15-7-11-5-11-4-18-2-21v-160l2-15 5-13 9-16 7-8 8-7 10-7 14-7z" fill="#232024"/>
<path transform="translate(1605,887)" d="m0 0h179l17 3 12 5 13 10 10 11 9 14 7 14 3 12 1 10v10l-3 15-5 12-8 14-9 11-9 8-12 7-11 4-18 3-15 1h-171l-16-3-14-7-10-8-11-11-8-11-7-17-4-14v-20l4-15 8-19 11-15h2l2-4h2v-2l13-10 11-5 9-2z" fill="#232024"/>
<path transform="translate(117,887)" d="m0 0h28l158 1 14 2 13 5 10 6 10 8v2h2l9 12 6 12 6 20 1 6v13l-3 16-6 15-8 13-9 11-9 8-16 8-15 4-20 2-59 1h-84l-32-1-14-3-16-8-13-10-7-7-10-14-5-12-3-14-1-8v-16l4-18 5-12 6-10 11-12 13-10 15-7 9-2z" fill="#232024"/>
<path transform="translate(942,1545)" d="m0 0h13l16 3 16 6 12 7 10 8 8 10 8 15 5 16 1 6v186l-3 15-5 12-6 11-11 12-7 6-12 7-13 4-21 4h-21l-12-3-16-8-10-9-12-12-6-9-6-17-3-16-1-14v-155l2-22 3-10 7-13 9-11 10-10 14-9 16-7z" fill="#232024"/>
<path transform="translate(1492,334)" d="m0 0h13l14 2 17 5 14 8 14 12 8 10 6 10 5 12 3 15v13l-2 14-4 12-8 14-10 13-11 12-18 18-8 7-10 9-8 7-9 9-8 7-17 17-10 8-17 8-19 7-7 2-3 1-6-3h-9l-20-6-12-6-11-8-10-9-6-9-5-12-4-13-1-5v-20l5-16 8-16 8-12 9-11 11-12 12-13 9-9 7-8 34-34 8-7 14-11 10-6 15-5z" fill="#232024"/>
<path transform="translate(475,1353)" d="m0 0h18l17 4 15 6 11 7 10 9 8 10 6 12 5 17 1 6v9l-2 15-5 17-6 11-8 11-11 12-16 17-8 8-7 8-10 11-7 8-20 20-8 7-11 9-13 8-18 6-10 2h-13l-18-3-14-5-14-8-8-7-9-11-9-14-6-17-2-9v-16l5-17 5-12 6-10 12-14 34-34 4-5 8-7 7-8 8-7 8-8 11-9 9-8 18-12 15-6z" fill="#232024"/>
<path transform="translate(389,333)" d="m0 0h17l15 3 13 5 13 9 89 89 7 8 9 12 7 14 5 16 1 5v19l-4 15-7 15-9 14-11 13-11 7-16 5-16 4-17-1-17-5-17-9-12-9-20-18-25-25-6-7-3-2v-2l-4-2v-2l-4-2v-2l-4-2v-2l-4-2v-2l-3-1-7-8-8-8-9-11-9-13-4-8-4-13v-19l4-18 6-16 9-14 9-10 14-9 17-8z" fill="#232024"/>
<path transform="translate(1405,1352)" d="m0 0h11l16 3 15 5 13 7 11 8 16 15 17 17 6 7 6 5v2l4 2 6 7 8 7 24 24v2h2l7 8 9 12 6 12 3 16-1 21-2 10-5 13-8 14-10 13-12 10-8 4-21 6-10 2h-20l-14-3-12-6-11-9-57-57-4-3v-2l-4-2-15-15-7-8-9-10-9-13-6-12-5-16-1-16 1-13 5-16 8-16 11-13 10-8 15-8 15-5z" fill="#232024"/>
<path transform="translate(430,340)" d="m0 0 6 2 12 9 53 53h-3l-35-35-2-1v-2l-4-2-10-10-14-11z" fill="#FDFDFD"/>
<path transform="translate(1451,1363)" d="m0 0 6 2 14 10 16 15 2 3-4-2-8-7v-2l-4-2-10-8-12-8z" fill="#FDFDFD"/>
<path transform="translate(1542,1446)" d="m0 0 7 6 9 9v2h2l7 8 7 9-1 2-9-10-9-11-13-13z" fill="#FDFDFD"/>
<path transform="translate(1533,341)" d="m0 0 5 1 12 7 8 7h-3l-8-6-14-8z" fill="#FDFDFD"/>
</svg>
