<?xml version="1.0" encoding="UTF-8"?>
<svg version="1.1" viewBox="0 0 1856 1840" width="116" height="115" xmlns="http://www.w3.org/2000/svg">
<path transform="translate(1193,174)" d="m0 0h39l17 1 34 5 20 5 20 7 24 11 24 14 14 10 11 9 10 9 13 12 11 11 7 8 11 14 9 13 13 21 12 25 7 19 7 26 5 30 2 27v12l-2 34-3 22-11 40-6 16-14 29-15 24-13 18-10 11-7 8-8 8-10 8-9 8-19 13-11 7-16 9-17 8-30 10-28 7-20 3-30 2-56 1h-454l-235-1h-96l-167 1h-91l-19-1-3-1-1-12-1-32 1-111 2-5 1108-2 23-2 16-3 15-5 16-8 17-13 13-14 12-18 6-16 5-21 2-20v-19l-3-19-7-20-10-18-13-15-7-7-14-10-16-8-18-6-25-5h-27l-18 4-19 7-11 6-16 12-4 2v2l-5 5-9 10-8 13-8 17-5 16-2 9v16l-3 3-3 1h-152l-6-2-1-2v-25l4-25 6-25 9-29 8-18 10-19 7-11 11-15 13-16 8-10 11-12 10-9 10-8 13-10 15-10 25-14 25-11 21-7 27-6 17-2z" fill="#1E1D20"/>
<path transform="translate(106,831)" d="m0 0h1316l38 1 33 2 21 2 25 5 20 6 20 8 16 8 21 12 19 14 13 10 16 13 13 13 11 14 11 15 11 17 14 27 10 25 7 24 5 27 3 21 1 24-1 21-3 25-6 32-6 21-8 20-8 16-9 17-13 19-14 19-8 8-7 8-14 14-14 11-12 8-19 12-17 9-19 8-27 9-24 6-34 5-11 1h-12l-3-7-1-152 4-4 35-6 17-6 14-7 12-9 10-9 9-10 7-11 7-16 5-15 4-22v-29l-3-19-6-16-8-16-7-12-11-13-9-8-13-8-17-8-14-4-13-2-14-1-62-1h-1301l-3-1-1-4-1-35v-41l1-58 1-25z" fill="#1E1D20"/>
<path transform="translate(771,1079)" d="m0 0h105l32 1 26 3 23 5 22 8 16 7 17 10 14 10 17 13 9 7v2l4 2 11 11 9 11 14 18 7 11 10 17 8 17 10 30 5 24 2 20v35l-2 21-5 23-8 29-8 18-10 19-11 16-12 16-12 13-20 20-13 10-17 11-15 9-15 7-20 7-19 5-39 7-8 1h-30l-26-3-19-4-24-7-20-8-21-11-19-14-13-10-10-9-20-20-15-20-9-14-12-23-6-15-8-26-5-23-3-27v-11l6-2h57l99 1 3 8 4 18 5 12 7 13 7 8 13 9 17 8 15 4 5 1h20l16-4 16-8 11-8 10-9 7-10 4-9 5-17 1-5v-25l-5-18-5-11-7-11-12-12-13-8-12-5-17-3-52-1-351-1h-374l-13-1-1-2-2-40v-88l1-28 2-3 3-1z" fill="#1E1D20"/>
</svg>
